<svg height="511pt" viewBox="1 0 511.9993 511" width="511pt" xmlns="http://www.w3.org/2000/svg"><path d="m494.933594 144.566406h-37.148438l-78.242187-135.53125c-4.714844-8.164062-15.152344-10.957031-23.3125-6.246094l-245.589844 141.777344h-50.863281c-32.375.027344-58.847656 25.816406-59.7265628 58.179688v1.28125c0 .09375-.0507812.171875-.0507812.265625v247.441406c.0390625 32.96875 26.757812 59.6875 59.726562 59.726563h435.207032c9.425781 0 17.066406-7.640626 17.066406-17.066407v-332.765625c0-9.425781-7.640625-17.0625-17.066406-17.0625zm-27.304688 17.0625h27.304688v85.324219h-49.640625l38.925781-22.472656c8.160156-4.710938 10.957031-15.148438 6.246094-23.3125zm-102.867187-144.0625 110.925781 192.136719-64.523438 37.25h-61.878906l75.855469-43.804687-8.535156-14.777344-101.425781 58.582031h-34.128907l127.023438-73.378906-8.53125-14.777344-147.785157 85.324219 1.632813 2.816406h-81.246094l29.453125-17.015625c4.078125-2.359375 5.472656-7.574219 3.113282-11.652344l-25.597657-44.285156c-2.355469-4.082031-7.574219-5.480469-11.65625-3.121094l-59.042969 34.128907c-4.082031 2.355468-5.484374 7.570312-3.128906 11.652343.003906.003907.003906.007813.007813.011719l17.515625 30.296875h-39.421875l-29.007813-50.203125zm-240.425781 197.953125 44.273437-25.597656 17.066406 29.515625-44.277343 25.597656zm-94.675782-41.398437c7.949219-8.042969 18.808594-12.546875 30.117188-12.492188h21.332031l-35.265625 20.34375c-3.933594 2.25-6.800781 5.988282-7.949219 10.375-.296875 1.085938-.480469 2.203125-.554687 3.328125-.222656 3.359375.5625 6.710938 2.257812 9.625l24.082032 41.652344h-1.75c-12.332032-.0625-24.121094-5.078125-32.722657-13.914063-5.800781-5.863281-9.75-13.308593-11.347656-21.398437-.171875-.972656-.195313-2-.300781-2.996094-.273438-1.808593-.421875-3.632812-.441406-5.460937.253906-10.949219 4.75-21.367188 12.542968-29.0625zm465.273438 320.273437h-435.15625c-23.550782-.027343-42.632813-19.109375-42.660156-42.660156v-205.632813c11.222656 11.480469 26.605468 17.9375 42.660156 17.917969h435.15625zm0 0"/><path d="m302.851562 166.269531c14.105469.015625 26.742188-8.707031 31.730469-21.902343 18.582031 2.847656 35.953125-9.90625 38.800781-28.484376 2.847657-18.582031-9.90625-35.953124-28.488281-38.800781-15.804687-2.421875-31.167969 6.484375-36.914062 21.40625-18.59375-3.101562-36.179688 9.453125-39.285157 28.046875-3.101562 18.589844 9.453126 36.179688 28.046876 39.28125 2.019531.339844 4.066406.492188 6.117187.464844zm28.355469-70.230469c8.191407-4.65625 18.609375-1.789062 23.265625 6.402344 4.617188 8.117188 1.851563 18.433594-6.203125 23.15625-3.511719 2.078125-7.664062 2.796875-11.671875 2.023438-.050781-.367188-.1875-.710938-.246094-1.078125-.246093-1.472657-.589843-2.929688-1.023437-4.359375-.171875-.554688-.328125-1.117188-.523437-1.703125-.65625-1.878907-1.476563-3.695313-2.457032-5.429688-1.011718-1.707031-2.167968-3.324219-3.464844-4.828125-.390624-.460937-.808593-.894531-1.226562-1.339844-.988281-1.046874-2.039062-2.03125-3.148438-2.953124-.308593-.253907-.5625-.578126-.855468-.851563 1.351562-3.824219 4.03125-7.03125 7.554687-9.039063zm-44.917969 31.691407c2.035157-7.453125 8.785157-12.636719 16.511719-12.679688 2.597657 0 5.160157.605469 7.480469 1.765625 1.53125.773438 2.945312 1.761719 4.199219 2.925782 1.214843 1.132812 2.25 2.4375 3.082031 3.875 1.652344 2.933593 2.433594 6.277343 2.242188 9.640624-.335938 5.695313-3.53125 10.832032-8.488282 13.652344-8.15625 4.726563-18.597656 1.945313-23.320312-6.210937-2.277344-3.925781-2.894532-8.601563-1.714844-12.984375zm0 0"/><path d="m256.023438 357.875c4.714843 0 8.535156 3.820312 8.535156 8.535156h17.0625c-.042969-10.808594-6.871094-20.425781-17.0625-24.027344v-10.105468h-17.066406v10.105468c-13.300782 4.683594-20.289063 19.265626-15.601563 32.570313 3.605469 10.234375 13.285156 17.074219 24.136719 17.054687 4.710937 0 8.53125 3.820313 8.53125 8.53125 0 4.710938-3.820313 8.53125-8.53125 8.53125-4.714844 0-8.535156-3.820312-8.535156-8.53125h-17.0625c.042968 10.808594 6.871093 20.425782 17.0625 24.027344v10.101563h17.066406v-10.101563c13.300781-4.683594 20.289062-19.269531 15.601562-32.570312-3.605468-10.234375-13.285156-17.074219-24.136718-17.054688-4.710938 0-8.53125-3.820312-8.53125-8.53125 0-4.714844 3.820312-8.535156 8.53125-8.535156zm0 0"/><path d="m256.023438 306.679688c-42.410157 0-76.789063 34.382812-76.789063 76.792968s34.378906 76.792969 76.789063 76.792969c42.414062 0 76.792968-34.382813 76.792968-76.792969-.050781-42.390625-34.402344-76.738281-76.792968-76.792968zm0 136.523437c-32.984376 0-59.726563-26.742187-59.726563-59.730469 0-32.984375 26.742187-59.726562 59.726563-59.726562 32.988281 0 59.730468 26.742187 59.730468 59.726562-.039062 32.972656-26.757812 59.691406-59.730468 59.730469zm0 0"/><path d="m290.15625 374.941406h17.0625v17.066406h-17.0625zm0 0"/><path d="m204.832031 374.941406h17.0625v17.066406h-17.0625zm0 0"/></svg>