<svg id="Layer_5" enable-background="new 0 0 64 64" height="512" viewBox="0 0 64 64" width="512" xmlns="http://www.w3.org/2000/svg"><path d="m42 15c-.552 0-1-.449-1-1h-2c0 1.654 1.346 3 3 3v2h2v-2h3v-3c0-1.654-1.346-3-3-3h-2c-.552 0-1-.449-1-1v-1h3c.552 0 1 .449 1 1h2c0-1.654-1.346-3-3-3v-2h-2v2h-3v3c0 1.654 1.346 3 3 3h2c.552 0 1 .449 1 1v1z"/><path d="m59.542 38.956 2.832-11.331-11.33 2.833 3.542 3.542-5.586 5.586-3-3-9 9-2.586-2.586h-11.414v-2.586l.507.507 6.768 1.354-1.354-6.768-5.921-5.921v-6.586c0-.551.448-1 1-1h10.586l1.24 1.24c-1.072.458-1.826 1.522-1.826 2.76 0 1.654 1.346 3 3 3 0 3.309 2.691 6 6 6s6-2.691 6-6c1.654 0 3-1.346 3-3 0-1.238-.754-2.302-1.826-2.76l1.311-1.312c2.267-2.265 3.515-5.279 3.515-8.484v-.444c0-6.617-5.383-12-12-12s-12 5.383-12 12v.444c0 .526.046 1.043.112 1.556h-9.838c1.667-1.467 2.726-3.61 2.726-6 0-4.411-3.589-8-8-8s-8 3.589-8 8c0 2.522 1.176 4.771 3.005 6.239-.605.137-1.192.338-1.756.597l-1.714-1.714c-.723-.724-1.683-1.122-2.707-1.122-2.11 0-3.828 1.717-3.828 3.829 0 1.022.398 1.983 1.121 2.707l2.176 2.176c-.195.744-.297 1.511-.297 2.288v5c0 2.757 2.243 5 5 5v25c0 2.206 1.794 4 4 4 1.201 0 2.266-.542 3-1.382.734.84 1.799 1.382 3 1.382h34v-24.586l3-3zm-14.542 22.044h-4v-16.586l4-4zm-6-14.586v14.586h-4v-14.586l2 2zm-6 14.586h-4v-16h4zm-6-16v16h-4.556c.344-.591.556-1.268.556-2v-14zm-11.5-18h-3.086l-1-1 2.586-2.586 12.586 12.586-2.586 2.586-5.839-5.839c.516-.61.839-1.388.839-2.247 0-1.93-1.57-3.5-3.5-3.5zm-2.914-5-2.586 2.586-1.586-1.586 2.586-2.586zm13.442 17.386 1.358-1.358.339 1.697zm16.972-6.386c-2.206 0-4-1.794-4-4h8c0 2.206-1.794 4-4 4zm6-6h-12c-.552 0-1-.449-1-1s.448-1 1-1h12c.552 0 1 .449 1 1s-.448 1-1 1zm-16-14c0-5.514 4.486-10 10-10s10 4.486 10 10v.444c0 2.671-1.04 5.182-2.929 7.071l-1.313 1.314c-.339.339-.62.742-.874 1.171h-9.768c-.254-.43-.535-.832-.874-1.171l-1.313-1.314c-1.889-1.889-2.929-4.4-2.929-7.071zm-23-4c0-3.309 2.691-6 6-6s6 2.691 6 6-2.691 6-6 6-6-2.691-6-6zm3 8h18.536c.327 1.06.804 2.067 1.415 3h-8.951c-1.654 0-3 1.346-3 3v4.586l-10.213-10.212c.711-.237 1.457-.374 2.213-.374zm-10-.171c0-1.009.82-1.829 1.828-1.829.481 0 .952.195 1.293.536l3.465 3.464-2.586 2.586-3.465-3.464c-.345-.346-.535-.805-.535-1.293zm3 12.171v-5c0-.182.03-.361.044-.542l3.542 3.542h-1.586v2h7.5c.827 0 1.5.673 1.5 1.5s-.673 1.5-1.5 1.5h-6.5c-1.654 0-3-1.346-3-3zm11 30v-17-.757c0-.534.208-1.036.586-1.415l1.121-1.121-1.414-1.414-1.121 1.121c-.756.756-1.172 1.761-1.172 2.829v.757 17c0 1.103-.897 2-2 2s-2-.897-2-2v-25h4.5c.328 0 .64-.06.941-.145l4.559 4.559v20.586c0 1.103-.897 2-2 2s-2-.897-2-2zm34 2h-4v-20.586l2 2 2-2zm8.626-30.625-1.168 4.669-3.502-3.502z"/></svg>