<svg id="Capa_1" enable-background="new 0 0 512 512" height="512" viewBox="0 0 512 512" width="512" xmlns="http://www.w3.org/2000/svg"><g><path d="m280.5 359c4.142 0 7.5-3.358 7.5-7.5s-3.358-7.5-7.5-7.5-7.5 3.358-7.5 7.5 3.358 7.5 7.5 7.5zm153.841-136.423c20.46-35.344 18.624-79.884-4.673-113.464-2.567-3.712-6.635-6.048-11.15-6.408-20.987-1.708-42.208 3.011-60.515 13.145.562-4.336.855-8.755.855-13.241-.001-56.579-46.142-102.609-102.858-102.609-20.946 0-41.102 6.244-58.29 18.056-3.414 2.346-4.279 7.016-1.933 10.429s7.015 4.279 10.429 1.933c14.677-10.086 31.895-15.418 49.794-15.418 48.445 0 87.857 39.301 87.857 87.609s-39.413 87.609-87.857 87.609-87.857-39.301-87.857-87.609c0-17.869 5.358-35.054 15.495-49.7 2.357-3.406 1.507-8.078-1.898-10.436-3.407-2.358-8.078-1.507-10.436 1.898-11.881 17.166-18.161 37.304-18.161 58.237 0 4.484.292 8.902.854 13.236-18.301-10.132-39.52-14.851-60.504-13.141-4.525.361-8.593 2.697-11.155 6.4-23.302 33.588-25.139 78.129-4.68 113.47 4.026 6.962 8.866 13.485 14.392 19.396.136.145.434.534.277 1.036-5.105 16.451-7.668 33.544-7.617 50.809.082 23.925 5.027 47.058 14.697 68.755 9.341 20.957 22.617 39.571 39.459 55.327.165.154.263.409.263.683v75.28c0 10.002 8.151 18.14 18.17 18.14h56.55c10.019 0 18.17-8.138 18.17-18.14v-31.422c16.893 2.367 34.271 2.207 51.16-.476v31.898c0 10.002 8.151 18.14 18.17 18.14h56.55c10.019 0 18.17-8.138 18.17-18.14v-78.35c0-.262.091-.507.252-.666 9.781-9.631 18.389-20.418 25.585-32.061 2.178-3.523 1.087-8.146-2.437-10.323-3.525-2.177-8.146-1.087-10.323 2.437-6.567 10.625-14.423 20.469-23.341 29.251-3.01 2.955-4.737 7.096-4.737 11.362v78.35c0 1.731-1.422 3.14-3.17 3.14h-56.55c-1.748 0-3.17-1.409-3.17-3.14v-33.22c0-4.088-1.79-7.949-4.912-10.592-3.118-2.64-7.215-3.77-11.243-3.096-16.192 2.702-32.929 2.855-49.113.459-3.983-.593-8.014.581-11.068 3.215-3.066 2.644-4.824 6.48-4.824 10.523v32.71c0 1.731-1.422 3.14-3.17 3.14h-56.548c-1.748 0-3.17-1.409-3.17-3.14v-75.28c0-4.414-1.829-8.656-5.016-11.637-31.71-29.662-49.255-69.856-49.404-113.175-.046-15.737 2.29-31.32 6.94-46.306 1.71-5.486.308-11.523-3.652-15.745-4.741-5.072-8.898-10.674-12.358-16.655-17.562-30.338-15.983-68.572 4.057-97.407 23.075-1.875 46.46 5.291 64.507 19.662 14.294 39.549 52.286 67.901 96.795 67.901s82.501-28.351 96.795-67.9c18.058-14.372 41.445-21.542 64.543-19.663 20.005 28.835 21.583 67.069 4.023 97.404-3.468 5.986-7.61 11.571-12.314 16.604-3.934 4.215-5.33 10.23-3.643 15.698 4.57 14.811 6.887 30.25 6.887 45.889 0 17.745-2.966 35.148-8.814 51.727-1.378 3.906.671 8.19 4.578 9.568 3.811 1.344 8.173-.624 9.568-4.578 6.416-18.186 9.669-37.268 9.669-56.717 0-17.14-2.542-34.067-7.553-50.311-.11-.356-.009-.737.272-1.038 5.472-5.853 10.294-12.354 14.331-19.322zm-202.341 135.923c4.142 0 7.5-3.358 7.5-7.5s-3.358-7.5-7.5-7.5-7.5 3.358-7.5 7.5 3.358 7.5 7.5 7.5zm-23.121 28.109c12.691 8.624 29.426 13.374 47.121 13.374s34.43-4.75 47.121-13.374c13.579-9.228 21.057-21.785 21.057-35.36s-7.478-26.132-21.057-35.36c-12.691-8.624-29.426-13.374-47.121-13.374s-34.43 4.75-47.121 13.374c-13.579 9.228-21.057 21.785-21.057 35.36s7.478 26.133 21.057 35.36zm47.121-69.093c28.825 0 53.178 15.448 53.178 33.733s-24.353 33.734-53.178 33.734-53.178-15.448-53.178-33.733 24.353-33.734 53.178-33.734zm-11.084-172.662c-5.032 0-9.125-5.004-9.125-11.154 0-4.142-3.358-7.5-7.5-7.5s-7.5 3.358-7.5 7.5c0 14.421 10.822 26.154 24.125 26.154h3.583v6.624c0 4.142 3.358 7.5 7.5 7.5s7.5-3.358 7.5-7.5v-6.624h3.583c13.303 0 24.125-11.733 24.125-26.154v-12.437c0-14.422-10.823-26.155-24.125-26.155h-3.582v-34.744h3.583c5.032 0 9.125 5.004 9.125 11.154 0 4.142 3.358 7.5 7.5 7.5s7.5-3.358 7.5-7.5c0-14.421-10.822-26.154-24.125-26.154h-3.583v-6.624c0-4.142-3.358-7.5-7.5-7.5s-7.5 3.358-7.5 7.5v6.624h-3.583c-13.303 0-24.125 11.733-24.125 26.154v12.437c0 6.825 2.404 13.282 6.771 18.181 4.583 5.142 10.746 7.974 17.355 7.973h3.583v34.746h-3.585zm18.584-34.746h3.583c5.032 0 9.125 5.004 9.125 11.155v12.437c0 6.15-4.093 11.154-9.125 11.154h-3.583zm-18.584-14.999c-2.272 0-4.459-1.049-6.157-2.954-1.914-2.148-2.968-5.06-2.968-8.201v-12.436c0-6.15 4.093-11.154 9.125-11.154h3.583v34.745z"/><g><path d="m173.613 258.614c-4.405 0-8.009-3.604-8.009-8.009v-20.073c0-4.405 3.604-8.009 8.009-8.009s8.009 3.604 8.009 8.009v20.073c-.001 4.405-3.605 8.009-8.009 8.009z"/><path d="m338.387 258.614c-4.405 0-8.009-3.604-8.009-8.009v-20.073c0-4.405 3.604-8.009 8.009-8.009s8.009 3.604 8.009 8.009v20.073c0 4.405-3.604 8.009-8.009 8.009z"/></g></g></svg>