<?xml version="1.0"?>
<svg xmlns="http://www.w3.org/2000/svg" id="Layer_1" data-name="Layer 1" viewBox="0 0 512 512" width="512" height="512"><path d="M240.808,53.284a6.71,6.71,0,0,0,4.913,1.735,219.643,219.643,0,0,1,30.826.725q.328.028.651.029a6.867,6.867,0,0,0,.638-13.7,233.117,233.117,0,0,0-32.758-.769,6.88,6.88,0,0,0-4.27,11.984Z"/><path d="M173.164,70.684a6.829,6.829,0,0,0,2.552-.5,215.013,215.013,0,0,1,29.352-9.372,6.867,6.867,0,0,0-3.225-13.351,228.585,228.585,0,0,0-31.235,9.975,6.868,6.868,0,0,0,2.556,13.243Z"/><path d="M139.231,89.031a6.868,6.868,0,1,0-7.436-11.548,231.436,231.436,0,0,0-26.221,19.655,6.867,6.867,0,1,0,9,10.377A217.73,217.73,0,0,1,139.231,89.031Z"/><path d="M337.925,45.33h0a7.106,7.106,0,1,0,1.282,9.971A7.117,7.117,0,0,0,337.924,45.33Z"/><path d="M355.469,58.882h0a7.11,7.11,0,1,0,2.707,4.723A7.118,7.118,0,0,0,355.468,58.881Z"/><path d="M373.013,72.433h0a7.108,7.108,0,1,0,2.708,4.722A7.082,7.082,0,0,0,373.012,72.433Z"/><path d="M390.563,85.989l0,0a7.109,7.109,0,1,0,1.281,9.972A7.115,7.115,0,0,0,390.558,85.985Z"/><path d="M306.939,480.718a215.864,215.864,0,0,1-30.4,5.076,6.868,6.868,0,0,0,.637,13.705q.323,0,.652-.03a230.435,230.435,0,0,0,32.333-5.4,6.868,6.868,0,0,0-3.227-13.352Z"/><path d="M235.464,485.8a216.214,216.214,0,0,1-30.4-5.075,6.868,6.868,0,0,0-3.226,13.352,230.181,230.181,0,0,0,32.334,5.4c.219.02.435.03.65.03a6.868,6.868,0,0,0,.638-13.7Z"/><path d="M438.7,134.744a6.868,6.868,0,0,0-6.725,10.761A216.87,216.87,0,0,1,448.034,171.8a6.867,6.867,0,1,0,12.2-6.3,230.455,230.455,0,0,0-17.075-27.965A6.824,6.824,0,0,0,438.7,134.744Z"/><path d="M372.761,452.51a215.747,215.747,0,0,1-27.022,14.781,6.868,6.868,0,1,0,5.712,12.493A229.933,229.933,0,0,0,380.2,464.059a6.868,6.868,0,0,0-7.435-11.549Z"/><path d="M435.427,403.15a6.866,6.866,0,0,0-9.644,1.146A217.941,217.941,0,0,1,405.037,427.1a6.868,6.868,0,0,0,9.479,9.941,231.616,231.616,0,0,0,22.057-24.249A6.874,6.874,0,0,0,435.427,403.15Z"/><path d="M469.821,240.029a6.9,6.9,0,0,0,6.791,5.9,7.192,7.192,0,0,0,.976-.069,6.876,6.876,0,0,0,5.83-7.768,229.26,229.26,0,0,0-6.937-32.043,6.867,6.867,0,0,0-13.18,3.864A215.578,215.578,0,0,1,469.821,240.029Z"/><path d="M468.906,337.18a6.87,6.87,0,0,0-8.736,4.245,215.218,215.218,0,0,1-12.149,28.337,6.868,6.868,0,1,0,12.2,6.3,229.119,229.119,0,0,0,12.926-30.151,6.867,6.867,0,0,0-4.244-8.735Z"/><path d="M35.838,235.325a6.865,6.865,0,0,0,8.037-5.453A215.287,215.287,0,0,1,51.832,200.1a6.867,6.867,0,0,0-12.98-4.49,228.989,228.989,0,0,0-8.467,31.675,6.869,6.869,0,0,0,5.453,8.037Z"/><path d="M166.263,467.294a216.4,216.4,0,0,1-27.048-14.8,6.867,6.867,0,0,0-7.437,11.547,230.147,230.147,0,0,0,28.771,15.741,6.792,6.792,0,0,0,2.853.625,6.869,6.869,0,0,0,2.861-13.115Z"/><path d="M42.18,301.512a218.689,218.689,0,0,1-2.17-30.753,6.868,6.868,0,1,0-13.735.01,232.414,232.414,0,0,0,2.308,32.681,6.9,6.9,0,0,0,6.79,5.9,7.207,7.207,0,0,0,.977-.069A6.878,6.878,0,0,0,42.18,301.512Z"/><path d="M478.858,263.9a6.876,6.876,0,0,0-6.868,6.867,218.906,218.906,0,0,1-2.17,30.751,6.868,6.868,0,0,0,5.83,7.768,7.185,7.185,0,0,0,.976.069,6.9,6.9,0,0,0,6.791-5.9,232.685,232.685,0,0,0,2.308-32.688A6.875,6.875,0,0,0,478.858,263.9Z"/><path d="M51.827,341.419a6.867,6.867,0,0,0-12.98,4.491,229.176,229.176,0,0,0,12.918,30.135,6.867,6.867,0,1,0,12.2-6.3A215.466,215.466,0,0,1,51.827,341.419Z"/><path d="M86.2,404.277a6.867,6.867,0,1,0-10.791,8.5,231.718,231.718,0,0,0,22.051,24.245,6.868,6.868,0,0,0,9.48-9.939A217.9,217.9,0,0,1,86.2,404.277Z"/><path d="M85.071,127.6a6.878,6.878,0,0,0-9.644,1.146,230.97,230.97,0,0,0-18.4,27.138,6.87,6.87,0,0,0,5.938,10.308,6.9,6.9,0,0,0,5.95-3.43,216.84,216.84,0,0,1,17.3-25.516A6.879,6.879,0,0,0,85.071,127.6Z"/><path d="M408.393,163.151a10.214,10.214,0,0,0,10.782-3.624,6,6,0,0,0,.965-1.833l9.969-31.043,27.578-17.566a5.976,5.976,0,0,0,1.526-1.393A10.242,10.242,0,0,0,450.754,91.2L418.7,86.914,402.66,74.529l22.03-28.522a9.694,9.694,0,0,0-1.745-13.6l-6.9-5.33a13.427,13.427,0,0,0-16.975.492l-26.911,23.4L329.612,18.105a24.474,24.474,0,0,0-29.921,38.738l42.546,32.863L326.4,121.658a13.425,13.425,0,0,0,3.811,16.545l6.9,5.333a9.622,9.622,0,0,0,5.906,2.023,9.84,9.84,0,0,0,1.255-.081,9.632,9.632,0,0,0,6.437-3.689l22.031-28.523,16.041,12.39,12.3,29.863A10.209,10.209,0,0,0,408.393,163.151ZM399.265,119.6a6,6,0,0,0-1.88-2.463L366.554,93.327a6,6,0,1,0-7.336,9.5l4.024,3.108-20.622,26.7-5.078-3.923a1.394,1.394,0,0,1-.4-1.717L355.173,90.63a6,6,0,0,0-1.708-7.413L307.026,47.346A12.474,12.474,0,0,1,322.277,27.6l46.439,35.87a6,6,0,0,0,7.605-.221l30.621-26.626a1.394,1.394,0,0,1,1.766-.051l5.077,3.921-20.622,26.7-4.024-3.108a6,6,0,1,0-7.335,9.5L412.635,97.4a6,6,0,0,0,2.873,1.2l30.017,4.01-23.69,15.089a6,6,0,0,0-2.489,3.225l-8.56,26.657Z"/><path d="M256,126.809c-79.38,0-143.96,64.58-143.96,143.959S176.62,414.728,256,414.728s143.96-64.58,143.96-143.96S335.38,126.809,256,126.809ZM124.04,270.768c0-71.062,56.465-129.174,126.884-131.852l6.141,37.341a8.84,8.84,0,0,1-3.876,8.822l-23.173,15.174a20.765,20.765,0,0,0-9.048,21.335l3.115,16.312a20.914,20.914,0,0,0,11.424,14.862l16.281,7.839a8.856,8.856,0,0,1,4.86,9.521l-5.932,32.945a8.871,8.871,0,0,1-1.62,3.725,8.83,8.83,0,0,1-15.08-1.568l-5.968-12.843a20.9,20.9,0,0,0-18.891-12.053H185.028a20.729,20.729,0,0,0-11.968,3.781L156.835,295.5a8.819,8.819,0,0,1-7.113,1.365l-24.108-5.723A132.353,132.353,0,0,1,124.04,270.768Zm199.618,71.838,4.23,38.767A131.176,131.176,0,0,1,256,402.728c-61.247,0-112.878-41.944-127.688-98.615l18.638,4.425a20.846,20.846,0,0,0,16.78-3.218l16.224-11.389a8.787,8.787,0,0,1,5.074-1.6h24.129a8.86,8.86,0,0,1,8.009,5.11l5.967,12.843a20.661,20.661,0,0,0,16.737,11.941,21.45,21.45,0,0,0,2.214.115,20.641,20.641,0,0,0,16.622-8.357,20.929,20.929,0,0,0,3.82-8.786l5.932-32.945a20.891,20.891,0,0,0-11.464-22.46l-16.281-7.839a8.867,8.867,0,0,1-4.843-6.3l-3.115-16.313a8.8,8.8,0,0,1,3.836-9.044l23.172-15.174a20.848,20.848,0,0,0,9.143-20.808L263.1,139a131.793,131.793,0,0,1,94.544,47.7l-10.2,7.264a30.423,30.423,0,0,0-11.81,17.217l-3.24,12.657a30.385,30.385,0,0,0,10.727,31.474,18.469,18.469,0,0,1,6.619,18.508l-6.547,29.2a18.352,18.352,0,0,1-5,9.04l-5.709,5.653A30.226,30.226,0,0,0,323.658,342.606Zm64.3-71.838a131.76,131.76,0,0,1-48.89,102.45L335.587,341.3a18.292,18.292,0,0,1,5.339-15.056l5.708-5.653a30.331,30.331,0,0,0,8.267-14.941l6.547-29.2a30.522,30.522,0,0,0-10.939-30.588,18.386,18.386,0,0,1-6.491-19.044l3.24-12.657a18.4,18.4,0,0,1,7.146-10.417l10.468-7.455A131.211,131.211,0,0,1,387.96,270.768Z"/></svg>
